{
 "asset": {
  "version": "2.0",
  "generator": "gymon test asset"
 },
 "scene": 0,
 "scenes": [
  {
   "nodes": [
    0
   ]
  }
 ],
 "nodes": [
  {
   "name": "Pyramid",
   "mesh": 0,
   "children": [
    1
   ]
  },
  {
   "name": "FloatingCube",
   "mesh": 1,
   "translation": [
    0,
    2.6,
    0
   ],
   "scale": [
    0.6,
    0.6,
    0.6
   ]
  }
 ],
 "meshes": [
  {
   "name": "Pyramid",
   "primitives": [
    {
     "attributes": {
      "POSITION": 0,
      "NORMAL": 1
     },
     "indices": 2,
     "material": 0
    }
   ]
  },
  {
   "name": "FloatingCube",
   "primitives": [
    {
     "attributes": {
      "POSITION": 3,
      "NORMAL": 4
     },
     "indices": 5,
     "material": 1
    }
   ]
  }
 ],
 "materials": [
  {
   "name": "Sand",
   "pbrMetallicRoughness": {
    "baseColorFactor": [
     0.85,
     0.72,
     0.45,
     1.0
    ]
   }
  },
  {
   "name": "Teal",
   "pbrMetallicRoughness": {
    "baseColorFactor": [
     0.2,
     0.7,
     0.65,
     1.0
    ]
   }
  }
 ],
 "accessors": [
  {
   "bufferView": 0,
   "componentType": 5126,
   "count": 5,
   "type": "VEC3",
   "min": [
    -1,
    0,
    -1
   ],
   "max": [
    1,
    1.6,
    1
   ]
  },
  {
   "bufferView": 1,
   "componentType": 5126,
   "count": 5,
   "type": "VEC3"
  },
  {
   "bufferView": 2,
   "componentType": 5123,
   "count": 18,
   "type": "SCALAR"
  },
  {
   "bufferView": 3,
   "componentType": 5126,
   "count": 24,
   "type": "VEC3",
   "min": [
    -0.5,
    -0.5,
    -0.5
   ],
   "max": [
    0.5,
    0.5,
    0.5
   ]
  },
  {
   "bufferView": 4,
   "componentType": 5126,
   "count": 24,
   "type": "VEC3"
  },
  {
   "bufferView": 5,
   "componentType": 5123,
   "count": 36,
   "type": "SCALAR"
  }
 ],
 "bufferViews": [
  {
   "buffer": 0,
   "byteOffset": 0,
   "byteLength": 60,
   "target": 34962
  },
  {
   "buffer": 0,
   "byteOffset": 60,
   "byteLength": 60,
   "target": 34962
  },
  {
   "buffer": 0,
   "byteOffset": 120,
   "byteLength": 36,
   "target": 34963
  },
  {
   "buffer": 0,
   "byteOffset": 156,
   "byteLength": 288,
   "target": 34962
  },
  {
   "buffer": 0,
   "byteOffset": 444,
   "byteLength": 288,
   "target": 34962
  },
  {
   "buffer": 0,
   "byteOffset": 732,
   "byteLength": 72,
   "target": 34963
  }
 ],
 "buffers": [
  {
   "byteLength": 804,
   "uri": "data:application/octet-stream;base64,"
  }
 ]
}